<svg width="200" height="200" viewBox="0 0 200 200" fill="none" xmlns="http://www.w3.org/2000/svg">
<path d="M122.27 72.29C123.73 71.96 124.91 71.68 125.67 71.46C123.6 69.06 122.77 67.86 121.42 66.15C121.42 66.15 121.69 68.01 122.26 72.27L122.27 72.29ZM123.27 79.75V79.84C124.74 90.1 126.46 101.44 126.58 103.65L87.32 103.58C87.45 96.52 90.32 76.75 91.97 66.58C91.1 66.94 75.79 72.58 73.97 70.73V70.68C72.7 63.4 71.07 55.46 70.14 49.48L74.44 47.61C75.11 49.7 78.03 57.35 79.86 61.36C83.9625 57.5835 88.4428 54.2392 93.23 51.38C96.23 49.76 101.13 49.96 101.13 49.96C101.193 49.4996 101.368 49.0617 101.64 48.6849C101.912 48.3082 102.273 48.0043 102.69 47.8L102.98 47.69C106.33 46.77 112.47 47.43 113.24 47.9C113.885 48.3989 114.337 49.1055 114.52 49.9C114.52 49.9 122.69 51.1 125.09 53.07C125.09 53.07 132.37 63.02 136.01 70.83C137.35 73.7 136.84 75.46 134.4 76.83C133 77.77 128.2 78.89 123.29 79.75H123.27ZM109.72 75.75C109.9 75.27 108.79 73.92 107.48 73.81H107.35L107.85 69.53C107.85 69 105.85 68.53 103.44 68.53C101.03 68.53 99.04 68.97 99.04 69.53C99.0414 69.5916 99.0625 69.6512 99.1 69.7L99.64 74.45C99.6355 74.4765 99.6355 74.5035 99.64 74.53C99.4958 74.5207 99.3513 74.5428 99.2165 74.5947C99.0816 74.6467 98.9596 74.7272 98.8589 74.8308C98.7581 74.9344 98.681 75.0586 98.6329 75.1948C98.5848 75.3311 98.5667 75.4761 98.58 75.62C98.6299 75.9566 98.7594 76.2764 98.9577 76.5529C99.1559 76.8294 99.4173 77.0547 99.72 77.21C99.5873 77.1807 99.4497 77.1808 99.317 77.2104C99.1842 77.2399 99.0596 77.2982 98.9519 77.3812C98.8442 77.4641 98.7559 77.5697 98.6934 77.6904C98.6309 77.8112 98.5956 77.9442 98.59 78.08C98.6538 78.3834 98.7874 78.6679 98.98 78.9109C99.1726 79.1538 99.4191 79.3487 99.7 79.48C99.5776 79.4395 99.4474 79.4282 99.3198 79.4468C99.1921 79.4654 99.0706 79.5135 98.9648 79.5872C98.859 79.661 98.7719 79.7584 98.7103 79.8717C98.6487 79.985 98.6144 80.1111 98.61 80.24C98.61 80.72 99.29 81.32 100.51 81.74V81.98L100.81 84.67C101.645 84.9141 102.51 85.042 103.38 85.05C104.328 85.0305 105.271 84.903 106.19 84.67L106.47 82.13V81.97C107.729 81.7404 108.962 81.3853 110.15 80.91L110.32 80.77C109.43 79.88 108.79 77 109.74 75.75H109.72Z" fill="#051E41"/>
<path d="M102.78 180.92V180.86H86.59C86.12 178.2 88.1 177.03 90.19 176.79C94.54 176.28 99.76 173.51 100.57 173.34H109.49C109.49 174.88 109.49 175.82 109.49 176.01V176.13C108.471 176.442 107.427 176.666 106.37 176.8C104.28 177.07 102.29 178.24 102.78 180.92Z" fill="#051E41"/>
<path d="M102.78 180.86V180.92C102.29 178.24 104.28 177.07 106.37 176.83C107.427 176.696 108.471 176.472 109.49 176.16C112.92 175.16 116.13 173.51 116.75 173.38H125.9C125.9 177.47 125.85 180.18 125.9 180.88L102.78 180.86Z" fill="#051E41"/>
<path d="M107.1 29.67C107.21 29.6777 107.312 29.7281 107.385 29.8104C107.458 29.8927 107.496 30.0002 107.49 30.11C107.48 30.2205 107.427 30.3228 107.343 30.3955C107.26 30.4682 107.151 30.5056 107.04 30.5C106.93 30.4898 106.829 30.437 106.758 30.3528C106.687 30.2686 106.652 30.1599 106.66 30.05C106.662 29.9956 106.676 29.9423 106.7 29.8934C106.723 29.8444 106.757 29.8008 106.798 29.7652C106.839 29.7297 106.887 29.7029 106.939 29.6865C106.991 29.6701 107.046 29.6645 107.1 29.67Z" fill="#051E41"/>
<path d="M101.61 29.5201C101.709 29.5412 101.798 29.5974 101.859 29.6785C101.92 29.7596 101.949 29.8601 101.942 29.9613C101.934 30.0625 101.891 30.1576 101.819 30.2291C101.747 30.3006 101.651 30.3436 101.55 30.3501C101.49 30.354 101.43 30.345 101.374 30.3237C101.318 30.3024 101.267 30.2694 101.225 30.2268C101.183 30.1843 101.15 30.1331 101.129 30.0769C101.108 30.0206 101.1 29.9605 101.104 29.9007C101.108 29.8409 101.125 29.7827 101.154 29.73C101.183 29.6773 101.222 29.6314 101.27 29.5953C101.318 29.5593 101.373 29.5339 101.432 29.5209C101.491 29.508 101.551 29.5077 101.61 29.5201Z" fill="#051E41"/>
<path d="M92 66.6101C91.13 66.9701 75.82 72.6101 74 70.7601" stroke="#051E41" stroke-width="0.86" stroke-miterlimit="10"/>
<path d="M112.55 26.3301C112.43 25.4901 112.3 24.5101 112.11 23.5101C111.876 21.875 111.237 20.3245 110.25 19.0001C107.96 16.4401 105.5 17.4001 103.41 19.5501C102.81 20.1714 102.262 20.8403 101.77 21.5501C100.275 23.691 99.1241 26.053 98.36 28.5501C97.48 32.0101 102.36 39.8101 103.77 40.3701C103.939 40.4319 104.113 40.4788 104.29 40.5101C106.35 40.9001 108.97 39.0601 109.85 37.2501" stroke="#051E41" stroke-width="0.86" stroke-miterlimit="10" stroke-linecap="round"/>
<path d="M113.26 47.93C113.26 42.01 113.58 36.63 113.09 30.73" stroke="#051E41" stroke-width="0.86" stroke-miterlimit="10"/>
<path d="M104.34 40.25C104.335 40.3299 104.335 40.4101 104.34 40.49C103.82 42.82 103.68 45.7 102.72 47.77" stroke="#051E41" stroke-width="0.86" stroke-miterlimit="10"/>
<path d="M111.73 27.3799C111.977 27.0144 112.266 26.6788 112.59 26.3799C114.93 24.3799 116.48 28.8299 115.52 30.0899C115.217 30.4085 114.826 30.6298 114.397 30.726C113.968 30.8221 113.52 30.7887 113.11 30.6299C112.922 30.5785 112.74 30.5046 112.57 30.4099" stroke="#051E41" stroke-width="0.86" stroke-miterlimit="10" stroke-linecap="round"/>
<path d="M101.79 21.53C101.23 21.47 93.46 19.9 94.57 17.72C95.21 16.48 99.33 17.8 103.43 19.5C107.33 21.12 111.23 23.08 112.13 23.5L112.27 23.56" stroke="#051E41" stroke-width="0.86" stroke-miterlimit="10"/>
<path d="M106.31 27.82C106.719 27.6942 107.151 27.6676 107.572 27.7424C107.993 27.8172 108.39 27.9912 108.73 28.25" stroke="#051E41" stroke-width="0.86" stroke-miterlimit="10" stroke-linecap="round"/>
<path d="M113 28.1899C113.43 28.5754 113.983 28.7952 114.56 28.8099" stroke="#051E41" stroke-width="0.86" stroke-miterlimit="10" stroke-linecap="round"/>
<path d="M100.88 27.9999C101.54 27.6999 103.03 27.7799 103.3 28.4299C103.73 29.4799 103.09 31.6599 102.82 32.9099C102.63 33.7599 102.33 35.4099 103.82 34.9699" stroke="#051E41" stroke-width="0.86" stroke-miterlimit="10" stroke-linecap="round"/>
<path d="M105.87 37.0699C105.692 37.2617 105.474 37.4113 105.23 37.5076C104.987 37.6038 104.725 37.6443 104.465 37.6261C104.204 37.6079 103.95 37.5314 103.723 37.4022C103.495 37.2731 103.299 37.0946 103.15 36.8799" stroke="#051E41" stroke-width="0.86" stroke-miterlimit="10" stroke-linecap="round"/>
<path d="M109.73 149.14C109.64 159.8 109.51 169 109.47 173.37C109.47 174.91 109.47 175.85 109.47 176.04" stroke="#051E41" stroke-width="0.86" stroke-miterlimit="10"/>
<path d="M119.68 106.77C119.56 111.05 122.49 113.63 126.15 114.68C127.2 114.979 128.28 115.156 129.37 115.21" stroke="#051E41" stroke-width="0.86" stroke-miterlimit="10" stroke-linecap="round"/>
<path d="M125.86 180.86C125.86 180.16 125.86 177.45 125.86 173.36C125.97 160.91 126.22 135.58 126.11 114.68C126.11 110.96 126.06 107.38 126.01 104.04" stroke="#051E41" stroke-width="0.86" stroke-linecap="round" stroke-linejoin="round"/>
<path d="M102.78 180.92L125.86 181.02C125.86 181.02 125.86 180.95 125.86 180.88" stroke="#051E41" stroke-width="0.86" stroke-linecap="round" stroke-linejoin="round"/>
<path d="M104.16 111.82C104.71 124.42 106.593 136.927 109.78 149.13C111.89 157.63 114.34 165.76 116.7 173.26V173.36C116.08 173.49 112.87 175.15 109.44 176.14C108.421 176.452 107.377 176.676 106.32 176.81C104.23 177.05 102.24 178.22 102.73 180.9" stroke="#051E41" stroke-width="0.86" stroke-linecap="round" stroke-linejoin="round"/>
<path d="M88.11 103.7C88.73 131.29 94.77 155 100.55 173.36C99.74 173.53 94.55 176.3 90.17 176.81C88.08 177.05 86.1 178.22 86.57 180.88H103" stroke="#051E41" stroke-width="0.86" stroke-linecap="round" stroke-linejoin="round"/>
<path d="M100.18 173.37H100.55H109.32" stroke="#051E41" stroke-width="0.86" stroke-miterlimit="10"/>
<path d="M116.74 173.37H116.75H125.88" stroke="#051E41" stroke-width="0.86" stroke-miterlimit="10"/>
<path d="M125.86 181.02V182.76H102.78V180.92V180.87H125.86V180.88V181.02Z" stroke="#051E41" stroke-width="0.86" stroke-linecap="round" stroke-linejoin="round"/>
<path d="M102.75 180.92V182.76H86.59V180.9V180.87H102.75V180.92Z" stroke="#051E41" stroke-width="0.86" stroke-linecap="round" stroke-linejoin="round"/>
<path d="M123.31 79.84C124.78 90.1 126.5 101.44 126.62 103.65L87.36 103.58C87.49 96.52 90.36 76.75 92.01 66.58C92.01 66.29 92.1 66.02 92.14 65.75" stroke="#051E41" stroke-width="0.86" stroke-linecap="round" stroke-linejoin="round"/>
<path d="M74.49 47.4501C76.19 44.9801 74.76 40.8201 74.28 39.1701C74 38.1701 72.55 38.2501 72.7 39.6701C72.82 40.8901 72.99 42.1801 72.49 42.6701" stroke="#051E41" stroke-width="0.86" stroke-miterlimit="10" stroke-linecap="round"/>
<path d="M72.42 42.8301C72.4245 42.8036 72.4245 42.7766 72.42 42.7501V42.7501C71.45 40.0001 68.3 35.0001 66.67 36.0001C66.524 36.0772 66.4129 36.2068 66.359 36.3628C66.3052 36.5188 66.3127 36.6894 66.38 36.8401C66.5665 37.2504 66.8354 37.618 67.17 37.9201C68.2234 38.8475 69.0452 40.0084 69.57 41.3101" stroke="#051E41" stroke-width="0.86" stroke-miterlimit="10" stroke-linecap="round"/>
<path d="M66.33 36.8699C66.152 36.6365 65.9218 36.4479 65.6579 36.3194C65.3939 36.1909 65.1035 36.126 64.81 36.1299C64.6125 36.119 64.4178 36.1797 64.2616 36.301C64.1054 36.4223 63.9983 36.5959 63.96 36.7899C63.8 37.2899 64.15 37.6899 64.5 38.0199C65.7827 39.3169 66.895 40.7719 67.81 42.3499" stroke="#051E41" stroke-width="0.86" stroke-miterlimit="10" stroke-linecap="round"/>
<path d="M70 49.5201C68.6 49.3601 67.51 46.1101 67.14 45.0401C66.5143 43.4804 65.6057 42.0497 64.46 40.8201C64.04 40.3301 63.18 39.5201 63.23 38.8201C63.2631 38.6868 63.3233 38.5618 63.4068 38.4528C63.4903 38.3438 63.5954 38.2532 63.7155 38.1866C63.8356 38.1199 63.9681 38.0788 64.1048 38.0656C64.2415 38.0525 64.3794 38.0676 64.51 38.1101" stroke="#051E41" stroke-width="0.86" stroke-miterlimit="10" stroke-linecap="round"/>
<path d="M70.46 44.66C70.06 43.34 71.67 42.79 72.46 42.82" stroke="#051E41" stroke-width="0.86" stroke-miterlimit="10" stroke-linecap="round"/>
<path d="M79.55 61.72L79.86 61.44C83.9587 57.6356 88.4391 54.2644 93.23 51.38C96.23 49.76 101.13 49.96 101.13 49.96C101.193 49.4996 101.368 49.0617 101.64 48.6849C101.912 48.3082 102.273 48.0043 102.69 47.8L102.98 47.69C106.33 46.77 112.47 47.43 113.24 47.9C113.885 48.3989 114.337 49.1055 114.52 49.9C114.52 49.9 122.69 51.1 125.09 53.07C125.09 53.07 132.37 63.02 136.01 70.83C137.35 73.7 136.84 75.46 134.4 76.83C132.93 77.67 128.18 78.83 123.27 79.65C117.48 80.65 111.48 81.35 110.48 80.82C110.391 80.7733 110.31 80.7125 110.24 80.64C109.41 79.78 108.77 76.91 109.72 75.64C109.911 75.3898 110.178 75.2075 110.48 75.12C114.67 73.91 119.1 72.91 122.25 72.18C123.71 71.85 124.89 71.57 125.65 71.35C123.58 68.95 122.75 67.75 121.4 66.04C121.4 66.04 121.67 67.9 122.24 72.16" stroke="#051E41" stroke-width="0.86" stroke-linecap="round" stroke-linejoin="round"/>
<path d="M107.24 74.8399C106.64 76.3899 103.65 76.1199 102.34 75.9099C101.88 75.8399 100 75.2999 99.67 74.4599C99.6655 74.4334 99.6655 74.4064 99.67 74.3799" stroke="#051E41" stroke-width="0.86" stroke-miterlimit="10"/>
<path d="M99.68 74.4701C99.5358 74.4608 99.3913 74.4829 99.2564 74.5348C99.1216 74.5867 98.9996 74.6672 98.8988 74.7708C98.7981 74.8744 98.721 74.9986 98.6728 75.1349C98.6247 75.2711 98.6067 75.4162 98.62 75.5601C98.6699 75.8966 98.7994 76.2165 98.9976 76.493C99.1959 76.7695 99.4572 76.9948 99.76 77.1501C101.194 77.984 102.877 78.2817 104.51 77.9901" stroke="#051E41" stroke-width="0.86" stroke-miterlimit="10" stroke-linecap="round"/>
<path d="M99.74 77.1601C99.6072 77.1308 99.4696 77.1309 99.3369 77.1604C99.2042 77.19 99.0796 77.2483 98.9719 77.3313C98.8641 77.4142 98.7759 77.5198 98.7134 77.6405C98.6508 77.7613 98.6156 77.8943 98.61 78.0301C98.6738 78.3335 98.8073 78.618 99 78.861C99.1926 79.1039 99.4391 79.2988 99.72 79.4301C101.157 80.1698 102.793 80.4325 104.39 80.1801" stroke="#051E41" stroke-width="0.86" stroke-miterlimit="10" stroke-linecap="round"/>
<path d="M99.7 79.4499C99.5775 79.4094 99.4473 79.398 99.3197 79.4166C99.1921 79.4353 99.0706 79.4834 98.9648 79.5571C98.859 79.6309 98.7719 79.7283 98.7103 79.8416C98.6487 79.9549 98.6143 80.081 98.61 80.2099C98.61 80.6899 99.29 81.2899 100.51 81.7099C102.427 82.2768 104.455 82.3558 106.41 81.9399C107.669 81.7103 108.902 81.3552 110.09 80.8799" stroke="#051E41" stroke-width="0.86" stroke-miterlimit="10" stroke-linecap="round"/>
<path d="M109.72 75.73C109.9 75.25 108.79 73.9 107.48 73.79" stroke="#051E41" stroke-width="0.86" stroke-miterlimit="10" stroke-linecap="round"/>
<path d="M99.08 69.47L99.1 69.64L99.64 74.39L99.65 74.45" stroke="#051E41" stroke-width="0.86" stroke-linecap="round" stroke-linejoin="round"/>
<path d="M107.86 69.47L107.85 69.5L107.35 73.78L107.23 74.85" stroke="#051E41" stroke-width="0.86" stroke-linecap="round" stroke-linejoin="round"/>
<path d="M99.1 69.64C99.0624 69.5911 99.0414 69.5316 99.04 69.47C99.04 68.94 101.04 68.47 103.44 68.47C105.84 68.47 107.85 68.91 107.85 69.47C107.79 69.99 105.85 70.41 103.45 70.41C101.26 70.44 99.45 70.09 99.1 69.64Z" stroke="#051E41" stroke-width="0.86" stroke-linecap="round" stroke-linejoin="round"/>
<path d="M106.44 82.1L106.16 84.64C105.241 84.873 104.298 85.0005 103.35 85.02C102.48 85.0119 101.615 84.8841 100.78 84.64L100.48 81.95" stroke="#051E41" stroke-width="0.86" stroke-linecap="round" stroke-linejoin="round"/>
<path d="M73.92 70.7099C72.65 63.4299 71.02 55.4899 70.09 49.5099L74.39 47.6399C75.06 49.7299 77.98 57.3799 79.81 61.3899" stroke="#051E41" stroke-width="0.86" stroke-linecap="round" stroke-linejoin="round"/>
<path d="M104.61 67.17C104.864 66.9062 105.06 66.5917 105.184 66.247C105.308 65.9023 105.358 65.5353 105.33 65.17C105.087 64.6015 104.8 64.0531 104.47 63.53C103.84 62.09 104.47 61.04 105.47 60.05" stroke="white" stroke-width="0.86" stroke-miterlimit="10" stroke-linecap="round"/>
<path d="M102.08 67.17C102.334 66.9062 102.53 66.5917 102.654 66.247C102.778 65.9023 102.828 65.5353 102.8 65.17C102.553 64.6034 102.266 64.0553 101.94 63.53C101.3 62.09 101.94 61.04 102.94 60.05" stroke="white" stroke-width="0.86" stroke-miterlimit="10" stroke-linecap="round"/>
<path d="M116.39 173.37C115 173.91 110.39 176.25 106.39 176.72C104.29 176.96 102.76 177.72 102.8 181.09" stroke="white" stroke-width="0.86" stroke-linejoin="round"/>
<path d="M109.14 75.41C112.88 73.41 119.14 72.3 122.36 71.53" stroke="white" stroke-width="0.86" stroke-linecap="square" stroke-linejoin="round"/>
<path d="M124 80.3601L123.22 80.5001C117.32 81.5001 110.78 81.5001 109.22 80.7301" stroke="white" stroke-width="0.86" stroke-linecap="round" stroke-linejoin="round"/>
</svg>
